{
	"asset":{
		"generator":"Khronos glTF Blender I/O v4.5.49",
		"version":"2.0"
	},
	"scene":0,
	"scenes":[
		{
			"name":"Scene",
			"nodes":[
				0,
				1,
				2,
				3,
				4,
				5,
				6,
				7,
				8,
				9
			]
		}
	],
	"nodes":[
		{
			"mesh":0,
			"name":"Cylinder",
			"translation":[
				0,
				-0.2718414068222046,
				0
			]
		},
		{
			"mesh":1,
			"name":"Cylinder.001",
			"rotation":[
				0,
				-0.9999919533729553,
				0,
				0.00401529623195529
			],
			"translation":[
				0,
				2.4826300144195557,
				0
			]
		},
		{
			"mesh":2,
			"name":"Cylinder.003",
			"translation":[
				12,
				-0.2718414068222046,
				0
			]
		},
		{
			"mesh":3,
			"name":"Cylinder.002",
			"rotation":[
				0,
				-0.9999919533729553,
				0,
				0.00401529623195529
			],
			"translation":[
				12,
				2.4826300144195557,
				0
			]
		},
		{
			"mesh":4,
			"name":"Cylinder.004",
			"translation":[
				3,
				-0.2718414068222046,
				0
			]
		},
		{
			"mesh":5,
			"name":"Cylinder.005",
			"rotation":[
				0,
				-0.9999919533729553,
				0,
				0.00401529623195529
			],
			"translation":[
				3,
				2.4826300144195557,
				0
			]
		},
		{
			"mesh":6,
			"name":"Cylinder.006",
			"rotation":[
				0,
				-0.9999919533729553,
				0,
				0.00401529623195529
			],
			"translation":[
				6,
				2.4826300144195557,
				0
			]
		},
		{
			"mesh":7,
			"name":"Cylinder.007",
			"translation":[
				6,
				-0.27184098958969116,
				0
			]
		},
		{
			"mesh":8,
			"name":"Cylinder.008",
			"rotation":[
				0,
				-0.9999919533729553,
				0,
				0.00401529623195529
			],
			"translation":[
				9,
				2.4826300144195557,
				0
			]
		},
		{
			"mesh":9,
			"name":"Cylinder.009",
			"translation":[
				9,
				-0.27184098958969116,
				0
			]
		}
	],
	"materials":[
		{
			"doubleSided":true,
			"name":"Material.003",
			"pbrMetallicRoughness":{
				"baseColorTexture":{
					"index":0
				},
				"metallicFactor":0,
				"roughnessFactor":0.5
			}
		},
		{
			"doubleSided":true,
			"name":"Material.006",
			"pbrMetallicRoughness":{
				"baseColorTexture":{
					"index":1
				},
				"metallicFactor":0,
				"roughnessFactor":0.5
			}
		},
		{
			"doubleSided":true,
			"name":"Material.005"
		},
		{
			"doubleSided":true,
			"name":"Material.001",
			"pbrMetallicRoughness":{
				"baseColorTexture":{
					"index":2
				},
				"metallicFactor":0,
				"roughnessFactor":0.5
			}
		},
		{
			"doubleSided":true,
			"name":"Material.002",
			"pbrMetallicRoughness":{
				"baseColorTexture":{
					"index":3
				},
				"metallicFactor":0,
				"roughnessFactor":0.5
			}
		},
		{
			"doubleSided":true,
			"name":"Material.004"
		},
		{
			"doubleSided":true,
			"name":"Material.009",
			"pbrMetallicRoughness":{
				"baseColorTexture":{
					"index":4
				},
				"metallicFactor":0,
				"roughnessFactor":0.5
			}
		},
		{
			"doubleSided":true,
			"name":"Material.008",
			"pbrMetallicRoughness":{
				"baseColorTexture":{
					"index":5
				},
				"metallicFactor":0,
				"roughnessFactor":0.5
			}
		},
		{
			"doubleSided":true,
			"name":"Material.010"
		},
		{
			"doubleSided":true,
			"name":"Material.015",
			"pbrMetallicRoughness":{
				"baseColorFactor":[
					0.18447501957416534,
					0.539479672908783,
					0.009134061634540558,
					1
				],
				"metallicFactor":0,
				"roughnessFactor":0.5
			}
		},
		{
			"doubleSided":true,
			"name":"Material.016"
		},
		{
			"doubleSided":true,
			"name":"Material.011",
			"pbrMetallicRoughness":{
				"baseColorFactor":[
					0.14126332104206085,
					0.5520114898681641,
					0.007499032653868198,
					1
				],
				"metallicFactor":0,
				"roughnessFactor":0.5
			}
		},
		{
			"doubleSided":true,
			"name":"Material.012",
			"pbrMetallicRoughness":{
				"baseColorTexture":{
					"index":6
				},
				"metallicFactor":0,
				"roughnessFactor":0.5
			}
		},
		{
			"doubleSided":true,
			"name":"Material.013"
		},
		{
			"doubleSided":true,
			"name":"Material.018",
			"pbrMetallicRoughness":{
				"baseColorTexture":{
					"index":7
				},
				"metallicFactor":0,
				"roughnessFactor":0.5
			}
		}
	],
	"meshes":[
		{
			"name":"Cylinder.001",
			"primitives":[
				{
					"attributes":{
						"POSITION":0,
						"NORMAL":1,
						"TEXCOORD_0":2
					},
					"indices":3,
					"material":0
				}
			]
		},
		{
			"name":"Cylinder.002",
			"primitives":[
				{
					"attributes":{
						"POSITION":4,
						"NORMAL":5,
						"TEXCOORD_0":6
					},
					"indices":7,
					"material":1
				},
				{
					"attributes":{
						"POSITION":8,
						"NORMAL":9,
						"TEXCOORD_0":10
					},
					"indices":11,
					"material":2
				}
			]
		},
		{
			"name":"Cylinder.004",
			"primitives":[
				{
					"attributes":{
						"POSITION":12,
						"NORMAL":13,
						"TEXCOORD_0":14
					},
					"indices":3,
					"material":3
				}
			]
		},
		{
			"name":"Cylinder.003",
			"primitives":[
				{
					"attributes":{
						"POSITION":15,
						"NORMAL":16,
						"TEXCOORD_0":17
					},
					"indices":7,
					"material":4
				},
				{
					"attributes":{
						"POSITION":18,
						"NORMAL":19,
						"TEXCOORD_0":20
					},
					"indices":11,
					"material":5
				}
			]
		},
		{
			"name":"Cylinder.005",
			"primitives":[
				{
					"attributes":{
						"POSITION":21,
						"NORMAL":22,
						"TEXCOORD_0":23
					},
					"indices":3,
					"material":6
				}
			]
		},
		{
			"name":"Cylinder.006",
			"primitives":[
				{
					"attributes":{
						"POSITION":24,
						"NORMAL":25,
						"TEXCOORD_0":26
					},
					"indices":27,
					"material":7
				},
				{
					"attributes":{
						"POSITION":28,
						"NORMAL":29,
						"TEXCOORD_0":30
					},
					"indices":11,
					"material":8
				}
			]
		},
		{
			"name":"Cylinder.007",
			"primitives":[
				{
					"attributes":{
						"POSITION":31,
						"NORMAL":32,
						"TEXCOORD_0":33
					},
					"indices":34,
					"material":9
				},
				{
					"attributes":{
						"POSITION":35,
						"NORMAL":36,
						"TEXCOORD_0":37
					},
					"indices":11,
					"material":10
				}
			]
		},
		{
			"name":"Cylinder.008",
			"primitives":[
				{
					"attributes":{
						"POSITION":38,
						"NORMAL":39,
						"TEXCOORD_0":40
					},
					"indices":3,
					"material":11
				}
			]
		},
		{
			"name":"Cylinder.009",
			"primitives":[
				{
					"attributes":{
						"POSITION":41,
						"NORMAL":42,
						"TEXCOORD_0":43
					},
					"indices":27,
					"material":12
				},
				{
					"attributes":{
						"POSITION":44,
						"NORMAL":45,
						"TEXCOORD_0":46
					},
					"indices":11,
					"material":13
				}
			]
		},
		{
			"name":"Cylinder.010",
			"primitives":[
				{
					"attributes":{
						"POSITION":47,
						"NORMAL":48,
						"TEXCOORD_0":49
					},
					"indices":3,
					"material":14
				}
			]
		}
	],
	"textures":[
		{
			"sampler":0,
			"source":0
		},
		{
			"sampler":0,
			"source":0
		},
		{
			"sampler":0,
			"source":1
		},
		{
			"sampler":0,
			"source":1
		},
		{
			"sampler":0,
			"source":0
		},
		{
			"sampler":0,
			"source":0
		},
		{
			"sampler":0,
			"source":1
		},
		{
			"sampler":0,
			"source":1
		}
	],
	"images":[
		{
			"mimeType":"image/jpeg",
			"name":"1200x-1 (2)",
			"uri":"1200x-1%20%282%29.jpg"
		},
		{
			"mimeType":"image/png",
			"name":"Pipe",
			"uri":"Pipe.png"
		}
	],
	"accessors":[
		{
			"bufferView":0,
			"componentType":5126,
			"count":192,
			"max":[
				1,
				2.2475099563598633,
				1
			],
			"min":[
				-1,
				-2.2475101947784424,
				-1
			],
			"type":"VEC3"
		},
		{
			"bufferView":1,
			"componentType":5126,
			"count":192,
			"type":"VEC3"
		},
		{
			"bufferView":2,
			"componentType":5126,
			"count":192,
			"type":"VEC2"
		},
		{
			"bufferView":3,
			"componentType":5123,
			"count":372,
			"type":"SCALAR"
		},
		{
			"bufferView":4,
			"componentType":5126,
			"count":452,
			"max":[
				1.2567158937454224,
				0.5170996189117432,
				1.2567157745361328
			],
			"min":[
				-1.2567157745361328,
				-0.5069647431373596,
				-1.2567158937454224
			],
			"type":"VEC3"
		},
		{
			"bufferView":5,
			"componentType":5126,
			"count":452,
			"type":"VEC3"
		},
		{
			"bufferView":6,
			"componentType":5126,
			"count":452,
			"type":"VEC2"
		},
		{
			"bufferView":7,
			"componentType":5123,
			"count":960,
			"type":"SCALAR"
		},
		{
			"bufferView":8,
			"componentType":5126,
			"count":160,
			"max":[
				0.9998791217803955,
				0.5170996189117432,
				0.9998791217803955
			],
			"min":[
				-0.9998791217803955,
				-0.5069647431373596,
				-0.9998791217803955
			],
			"type":"VEC3"
		},
		{
			"bufferView":9,
			"componentType":5126,
			"count":160,
			"type":"VEC3"
		},
		{
			"bufferView":10,
			"componentType":5126,
			"count":160,
			"type":"VEC2"
		},
		{
			"bufferView":11,
			"componentType":5123,
			"count":282,
			"type":"SCALAR"
		},
		{
			"bufferView":12,
			"componentType":5126,
			"count":192,
			"max":[
				1,
				2.2475099563598633,
				1
			],
			"min":[
				-1,
				-2.2475101947784424,
				-1
			],
			"type":"VEC3"
		},
		{
			"bufferView":13,
			"componentType":5126,
			"count":192,
			"type":"VEC3"
		},
		{
			"bufferView":14,
			"componentType":5126,
			"count":192,
			"type":"VEC2"
		},
		{
			"bufferView":15,
			"componentType":5126,
			"count":452,
			"max":[
				1.2567158937454224,
				0.5170996189117432,
				1.2567157745361328
			],
			"min":[
				-1.2567157745361328,
				-0.5069647431373596,
				-1.2567158937454224
			],
			"type":"VEC3"
		},
		{
			"bufferView":16,
			"componentType":5126,
			"count":452,
			"type":"VEC3"
		},
		{
			"bufferView":17,
			"componentType":5126,
			"count":452,
			"type":"VEC2"
		},
		{
			"bufferView":18,
			"componentType":5126,
			"count":160,
			"max":[
				0.9998791217803955,
				0.5170996189117432,
				0.9998791217803955
			],
			"min":[
				-0.9998791217803955,
				-0.5069647431373596,
				-0.9998791217803955
			],
			"type":"VEC3"
		},
		{
			"bufferView":19,
			"componentType":5126,
			"count":160,
			"type":"VEC3"
		},
		{
			"bufferView":20,
			"componentType":5126,
			"count":160,
			"type":"VEC2"
		},
		{
			"bufferView":21,
			"componentType":5126,
			"count":192,
			"max":[
				1,
				2.2475099563598633,
				1
			],
			"min":[
				-1,
				-2.2475101947784424,
				-1
			],
			"type":"VEC3"
		},
		{
			"bufferView":22,
			"componentType":5126,
			"count":192,
			"type":"VEC3"
		},
		{
			"bufferView":23,
			"componentType":5126,
			"count":192,
			"type":"VEC2"
		},
		{
			"bufferView":24,
			"componentType":5126,
			"count":452,
			"max":[
				1.2567158937454224,
				0.5135900974273682,
				1.2567157745361328
			],
			"min":[
				-1.2567157745361328,
				-0.5104742646217346,
				-1.2567158937454224
			],
			"type":"VEC3"
		},
		{
			"bufferView":25,
			"componentType":5126,
			"count":452,
			"type":"VEC3"
		},
		{
			"bufferView":26,
			"componentType":5126,
			"count":452,
			"type":"VEC2"
		},
		{
			"bufferView":27,
			"componentType":5123,
			"count":960,
			"type":"SCALAR"
		},
		{
			"bufferView":28,
			"componentType":5126,
			"count":160,
			"max":[
				0.9998791217803955,
				0.5135900974273682,
				0.9998791217803955
			],
			"min":[
				-0.9998791217803955,
				-0.5104742646217346,
				-0.9998791217803955
			],
			"type":"VEC3"
		},
		{
			"bufferView":29,
			"componentType":5126,
			"count":160,
			"type":"VEC3"
		},
		{
			"bufferView":30,
			"componentType":5126,
			"count":160,
			"type":"VEC2"
		},
		{
			"bufferView":31,
			"componentType":5126,
			"count":452,
			"max":[
				1.2567158937454224,
				0.5245027542114258,
				1.2567157745361328
			],
			"min":[
				-1.2567157745361328,
				-0.499561607837677,
				-1.2567158937454224
			],
			"type":"VEC3"
		},
		{
			"bufferView":32,
			"componentType":5126,
			"count":452,
			"type":"VEC3"
		},
		{
			"bufferView":33,
			"componentType":5126,
			"count":452,
			"type":"VEC2"
		},
		{
			"bufferView":34,
			"componentType":5123,
			"count":960,
			"type":"SCALAR"
		},
		{
			"bufferView":35,
			"componentType":5126,
			"count":160,
			"max":[
				0.9998791217803955,
				0.5245027542114258,
				0.9998791217803955
			],
			"min":[
				-0.9998791217803955,
				-0.499561607837677,
				-0.9998791217803955
			],
			"type":"VEC3"
		},
		{
			"bufferView":36,
			"componentType":5126,
			"count":160,
			"type":"VEC3"
		},
		{
			"bufferView":37,
			"componentType":5126,
			"count":160,
			"type":"VEC2"
		},
		{
			"bufferView":38,
			"componentType":5126,
			"count":192,
			"max":[
				1,
				2.2475099563598633,
				1
			],
			"min":[
				-1,
				-2.2475101947784424,
				-1
			],
			"type":"VEC3"
		},
		{
			"bufferView":39,
			"componentType":5126,
			"count":192,
			"type":"VEC3"
		},
		{
			"bufferView":40,
			"componentType":5126,
			"count":192,
			"type":"VEC2"
		},
		{
			"bufferView":41,
			"componentType":5126,
			"count":452,
			"max":[
				1.2567158937454224,
				0.5135900974273682,
				1.2567157745361328
			],
			"min":[
				-1.2567157745361328,
				-0.5104742646217346,
				-1.2567158937454224
			],
			"type":"VEC3"
		},
		{
			"bufferView":42,
			"componentType":5126,
			"count":452,
			"type":"VEC3"
		},
		{
			"bufferView":43,
			"componentType":5126,
			"count":452,
			"type":"VEC2"
		},
		{
			"bufferView":44,
			"componentType":5126,
			"count":160,
			"max":[
				0.9998791217803955,
				0.5135900974273682,
				0.9998791217803955
			],
			"min":[
				-0.9998791217803955,
				-0.5104742646217346,
				-0.9998791217803955
			],
			"type":"VEC3"
		},
		{
			"bufferView":45,
			"componentType":5126,
			"count":160,
			"type":"VEC3"
		},
		{
			"bufferView":46,
			"componentType":5126,
			"count":160,
			"type":"VEC2"
		},
		{
			"bufferView":47,
			"componentType":5126,
			"count":192,
			"max":[
				1,
				2.2475099563598633,
				1
			],
			"min":[
				-1,
				-2.2475101947784424,
				-1
			],
			"type":"VEC3"
		},
		{
			"bufferView":48,
			"componentType":5126,
			"count":192,
			"type":"VEC3"
		},
		{
			"bufferView":49,
			"componentType":5126,
			"count":192,
			"type":"VEC2"
		}
	],
	"bufferViews":[
		{
			"buffer":0,
			"byteLength":2304,
			"byteOffset":0,
			"target":34962
		},
		{
			"buffer":0,
			"byteLength":2304,
			"byteOffset":2304,
			"target":34962
		},
		{
			"buffer":0,
			"byteLength":1536,
			"byteOffset":4608,
			"target":34962
		},
		{
			"buffer":0,
			"byteLength":744,
			"byteOffset":6144,
			"target":34963
		},
		{
			"buffer":0,
			"byteLength":5424,
			"byteOffset":6888,
			"target":34962
		},
		{
			"buffer":0,
			"byteLength":5424,
			"byteOffset":12312,
			"target":34962
		},
		{
			"buffer":0,
			"byteLength":3616,
			"byteOffset":17736,
			"target":34962
		},
		{
			"buffer":0,
			"byteLength":1920,
			"byteOffset":21352,
			"target":34963
		},
		{
			"buffer":0,
			"byteLength":1920,
			"byteOffset":23272,
			"target":34962
		},
		{
			"buffer":0,
			"byteLength":1920,
			"byteOffset":25192,
			"target":34962
		},
		{
			"buffer":0,
			"byteLength":1280,
			"byteOffset":27112,
			"target":34962
		},
		{
			"buffer":0,
			"byteLength":564,
			"byteOffset":28392,
			"target":34963
		},
		{
			"buffer":0,
			"byteLength":2304,
			"byteOffset":28956,
			"target":34962
		},
		{
			"buffer":0,
			"byteLength":2304,
			"byteOffset":31260,
			"target":34962
		},
		{
			"buffer":0,
			"byteLength":1536,
			"byteOffset":33564,
			"target":34962
		},
		{
			"buffer":0,
			"byteLength":5424,
			"byteOffset":35100,
			"target":34962
		},
		{
			"buffer":0,
			"byteLength":5424,
			"byteOffset":40524,
			"target":34962
		},
		{
			"buffer":0,
			"byteLength":3616,
			"byteOffset":45948,
			"target":34962
		},
		{
			"buffer":0,
			"byteLength":1920,
			"byteOffset":49564,
			"target":34962
		},
		{
			"buffer":0,
			"byteLength":1920,
			"byteOffset":51484,
			"target":34962
		},
		{
			"buffer":0,
			"byteLength":1280,
			"byteOffset":53404,
			"target":34962
		},
		{
			"buffer":0,
			"byteLength":2304,
			"byteOffset":54684,
			"target":34962
		},
		{
			"buffer":0,
			"byteLength":2304,
			"byteOffset":56988,
			"target":34962
		},
		{
			"buffer":0,
			"byteLength":1536,
			"byteOffset":59292,
			"target":34962
		},
		{
			"buffer":0,
			"byteLength":5424,
			"byteOffset":60828,
			"target":34962
		},
		{
			"buffer":0,
			"byteLength":5424,
			"byteOffset":66252,
			"target":34962
		},
		{
			"buffer":0,
			"byteLength":3616,
			"byteOffset":71676,
			"target":34962
		},
		{
			"buffer":0,
			"byteLength":1920,
			"byteOffset":75292,
			"target":34963
		},
		{
			"buffer":0,
			"byteLength":1920,
			"byteOffset":77212,
			"target":34962
		},
		{
			"buffer":0,
			"byteLength":1920,
			"byteOffset":79132,
			"target":34962
		},
		{
			"buffer":0,
			"byteLength":1280,
			"byteOffset":81052,
			"target":34962
		},
		{
			"buffer":0,
			"byteLength":5424,
			"byteOffset":82332,
			"target":34962
		},
		{
			"buffer":0,
			"byteLength":5424,
			"byteOffset":87756,
			"target":34962
		},
		{
			"buffer":0,
			"byteLength":3616,
			"byteOffset":93180,
			"target":34962
		},
		{
			"buffer":0,
			"byteLength":1920,
			"byteOffset":96796,
			"target":34963
		},
		{
			"buffer":0,
			"byteLength":1920,
			"byteOffset":98716,
			"target":34962
		},
		{
			"buffer":0,
			"byteLength":1920,
			"byteOffset":100636,
			"target":34962
		},
		{
			"buffer":0,
			"byteLength":1280,
			"byteOffset":102556,
			"target":34962
		},
		{
			"buffer":0,
			"byteLength":2304,
			"byteOffset":103836,
			"target":34962
		},
		{
			"buffer":0,
			"byteLength":2304,
			"byteOffset":106140,
			"target":34962
		},
		{
			"buffer":0,
			"byteLength":1536,
			"byteOffset":108444,
			"target":34962
		},
		{
			"buffer":0,
			"byteLength":5424,
			"byteOffset":109980,
			"target":34962
		},
		{
			"buffer":0,
			"byteLength":5424,
			"byteOffset":115404,
			"target":34962
		},
		{
			"buffer":0,
			"byteLength":3616,
			"byteOffset":120828,
			"target":34962
		},
		{
			"buffer":0,
			"byteLength":1920,
			"byteOffset":124444,
			"target":34962
		},
		{
			"buffer":0,
			"byteLength":1920,
			"byteOffset":126364,
			"target":34962
		},
		{
			"buffer":0,
			"byteLength":1280,
			"byteOffset":128284,
			"target":34962
		},
		{
			"buffer":0,
			"byteLength":2304,
			"byteOffset":129564,
			"target":34962
		},
		{
			"buffer":0,
			"byteLength":2304,
			"byteOffset":131868,
			"target":34962
		},
		{
			"buffer":0,
			"byteLength":1536,
			"byteOffset":134172,
			"target":34962
		}
	],
	"samplers":[
		{
			"magFilter":9729,
			"minFilter":9987
		}
	],
	"buffers":[
		{
			"byteLength":135708,
			"uri":"Flappy%20Pipe.bin"
		}
	]
}
